<svg width="39" height="38" viewBox="0 0 39 38" fill="none" xmlns="http://www.w3.org/2000/svg">
<rect x="10" y="10" width="29" height="28" rx="8" fill="#5C50E1" fill-opacity="0.71"/>
<path d="M13.0246 0.688548C12.9726 0.932734 12.6299 2.45186 12.2663 4.06866C11.9028 5.68546 11.4678 7.3666 11.2929 7.82682C10.8249 8.9851 10.9754 9.36261 11.7892 9.15583C12.9894 8.85083 13.7679 7.54433 14.4525 4.69109C14.7536 3.36732 14.7871 2.75828 14.5783 1.84125C14.2303 0.31288 13.304 -0.352543 13.0246 0.688548Z" fill="black"/>
<path d="M2.75641 3.72155C2.30321 4.048 2.74444 4.78103 4.08996 5.87118C4.8453 6.50092 5.75118 7.42107 6.10199 7.94231C6.49296 8.54726 6.83818 8.85863 7.05761 8.80288C7.43661 8.70657 7.77252 7.49434 7.61081 6.78418C7.34298 5.60799 5.80145 4.02769 4.58785 3.70221C3.86362 3.48715 3.0253 3.51236 2.75641 3.72155Z" fill="black"/>
<path d="M1.97785 11.7081C-0.212065 12.5282 -0.410145 13.4132 1.54472 13.6853C2.93064 13.8603 5.99718 13.103 6.61933 12.4177C7.12122 11.8509 6.90081 11.16 6.1539 11.0203C5.27825 10.8694 3.4359 11.1838 1.97785 11.7081Z" fill="black"/>
<path d="M19.0735 22.6114L20.8467 23.3348C21.0589 22.9256 21.2786 22.531 21.5059 22.151C21.7333 21.771 21.9833 21.391 22.2561 21.011L20.9831 20.7699L19.0735 22.6114ZM22.3016 24.431L24.8931 26.9082C25.5296 26.6744 26.2116 26.3163 26.939 25.834C27.6665 25.3517 28.3484 24.8037 28.9849 24.1898C30.0458 23.1668 30.8755 22.0304 31.4742 20.7809C32.0728 19.5313 32.3342 18.3803 32.2584 17.328C31.1673 17.255 29.97 17.5071 28.6667 18.0844C27.3634 18.6617 26.1813 19.4618 25.1204 20.4849C24.4839 21.0987 23.9156 21.7564 23.4155 22.4579C22.9153 23.1595 22.544 23.8171 22.3016 24.431ZM26.348 23.006C25.9994 22.6699 25.8251 22.257 25.8251 21.7674C25.8251 21.2778 25.9994 20.8649 26.348 20.5287C26.6965 20.1926 27.1285 20.0245 27.6437 20.0245C28.159 20.0245 28.5909 20.1926 28.9395 20.5287C29.288 20.8649 29.4623 21.2778 29.4623 21.7674C29.4623 22.257 29.288 22.6699 28.9395 23.006C28.5909 23.3422 28.159 23.5102 27.6437 23.5102C27.1285 23.5102 26.6965 23.3422 26.348 23.006ZM26.7799 30.0432L28.6894 28.2017L28.4394 26.974C28.0453 27.2371 27.6513 27.4746 27.2573 27.6865C26.8632 27.8984 26.4541 28.1067 26.0297 28.3113L26.7799 30.0432ZM33.8952 15.7277C34.1831 17.4961 34.0051 19.217 33.361 20.8905C32.7169 22.5639 31.6068 24.1606 30.0306 25.6806L30.4853 27.8509C30.5459 28.1432 30.5308 28.4282 30.4398 28.7059C30.3489 28.9836 30.1973 29.2247 29.9852 29.4293L26.1661 33.1123L24.2566 28.7936L20.3693 25.0448L15.891 23.2033L19.6873 19.5203C19.8995 19.3157 20.1533 19.1695 20.4489 19.0818C20.7444 18.9942 21.0437 18.9795 21.3468 19.038L23.5973 19.4765C25.1734 17.9565 26.8253 16.8823 28.553 16.2538C30.2807 15.6254 32.0614 15.45 33.8952 15.7277ZM17.505 27.829C18.0354 27.3175 18.6833 27.058 19.4486 27.0507C20.214 27.0434 20.8618 27.2955 21.3923 27.8071C21.9227 28.3186 22.1841 28.9434 22.1765 29.6815C22.169 30.4195 21.9 31.0443 21.3695 31.5558C20.9907 31.9212 20.3579 32.2354 19.4714 32.4985C18.5848 32.7616 17.361 32.9954 15.8 33.2C16.0122 31.6947 16.2547 30.5145 16.5275 29.6595C16.8003 28.8045 17.1261 28.1944 17.505 27.829ZM18.8007 29.0567C18.6492 29.2028 18.4976 29.4695 18.3461 29.8568C18.1945 30.2441 18.0885 30.6351 18.0278 31.0297C18.437 30.9712 18.8424 30.8726 19.244 30.7337C19.6456 30.5949 19.9222 30.4524 20.0738 30.3062C20.2556 30.1309 20.3541 29.9189 20.3693 29.6705C20.3845 29.422 20.3011 29.2101 20.1192 29.0347C19.9374 28.8594 19.7176 28.7753 19.46 28.7826C19.2024 28.7899 18.9826 28.8813 18.8007 29.0567Z" fill="#5C50E1"/>
<path d="M19.1168 22.5213L20.8335 23.2226C21.0389 22.8259 21.2517 22.4434 21.4718 22.0751C21.6918 21.7067 21.9339 21.3384 22.198 20.9701L20.9655 20.7363L19.1168 22.5213ZM22.2421 24.2851L24.7511 26.6863C25.3673 26.4597 26.0276 26.1126 26.7319 25.6451C27.4362 25.1776 28.0964 24.6463 28.7127 24.0513C29.7398 23.0597 30.5431 21.9582 31.1227 20.747C31.7022 19.5357 31.9553 18.4201 31.882 17.4001C30.8255 17.3292 29.6664 17.5736 28.4046 18.1332C27.1427 18.6928 25.9983 19.4684 24.9712 20.4601C24.3549 21.0551 23.8047 21.6926 23.3205 22.3726C22.8363 23.0526 22.4768 23.6901 22.2421 24.2851ZM26.1597 22.9038C25.8222 22.578 25.6534 22.1778 25.6534 21.7032C25.6534 21.2286 25.8222 20.8284 26.1597 20.5026C26.4971 20.1767 26.9153 20.0138 27.4142 20.0138C27.913 20.0138 28.3312 20.1767 28.6687 20.5026C29.0061 20.8284 29.1749 21.2286 29.1749 21.7032C29.1749 22.1778 29.0061 22.578 28.6687 22.9038C28.3312 23.2297 27.913 23.3926 27.4142 23.3926C26.9153 23.3926 26.4971 23.2297 26.1597 22.9038ZM26.5778 29.7251L28.4266 27.9401L28.1845 26.7501C27.803 27.0051 27.4215 27.2353 27.04 27.4407C26.6585 27.6461 26.2624 27.848 25.8515 28.0463L26.5778 29.7251ZM33.4666 15.8488C33.7454 17.563 33.573 19.2311 32.9494 20.8532C32.3258 22.4753 31.2511 24.023 29.7251 25.4963L30.1653 27.6001C30.224 27.8834 30.2093 28.1597 30.1213 28.4288C30.0332 28.698 29.8865 28.9317 29.6811 29.1301L25.9836 32.7001L24.1348 28.5138L20.3713 24.8801L16.0355 23.0951L19.711 19.5251C19.9165 19.3267 20.1622 19.1851 20.4483 19.1001C20.7345 19.0151 21.0242 19.0009 21.3177 19.0576L23.4966 19.4826C25.0225 18.0092 26.6218 16.968 28.2945 16.3588C29.9672 15.7497 31.6912 15.5797 33.4666 15.8488ZM17.5982 27.5788C18.1117 27.083 18.739 26.8315 19.4799 26.8245C20.2209 26.8174 20.8482 27.0617 21.3617 27.5576C21.8752 28.0534 22.1284 28.659 22.121 29.3745C22.1137 30.0899 21.8532 30.6955 21.3397 31.1913C20.9729 31.5455 20.3603 31.8501 19.502 32.1051C18.6436 32.3601 17.4588 32.5867 15.9475 32.7851C16.1529 31.3259 16.3877 30.182 16.6518 29.3532C16.9159 28.5245 17.2314 27.933 17.5982 27.5788ZM18.8527 28.7688C18.706 28.9105 18.5592 29.169 18.4125 29.5445C18.2658 29.9199 18.1631 30.2988 18.1044 30.6813C18.5005 30.6247 18.893 30.529 19.2819 30.3945C19.6707 30.2599 19.9385 30.1217 20.0852 29.9801C20.2613 29.8101 20.3566 29.6047 20.3713 29.3638C20.386 29.123 20.3053 28.9176 20.1292 28.7476C19.9531 28.5776 19.7404 28.4961 19.4909 28.5032C19.2415 28.5103 19.0288 28.5988 18.8527 28.7688Z" fill="white"/>
</svg>
