<svg width="20" height="16" viewBox="0 0 20 16" fill="none" xmlns="http://www.w3.org/2000/svg">
<path d="M15.3711 15.8125C14.3128 15.8125 13.4182 15.4651 12.6875 14.7703C11.9567 14.0755 11.5913 13.225 11.5913 12.2188C11.5913 11.2125 11.9567 10.362 12.6875 9.66719C13.4182 8.9724 14.3128 8.625 15.3711 8.625C16.4295 8.625 17.324 8.9724 18.0548 9.66719C18.7855 10.362 19.1509 11.2125 19.1509 12.2188C19.1509 13.225 18.7855 14.0755 18.0548 14.7703C17.324 15.4651 16.4295 15.8125 15.3711 15.8125ZM15.3711 13.8958C15.8583 13.8958 16.2741 13.7321 16.6185 13.4047C16.9628 13.0773 17.135 12.6819 17.135 12.2188C17.135 11.7556 16.9628 11.3602 16.6185 11.0328C16.2741 10.7054 15.8583 10.5417 15.3711 10.5417C14.884 10.5417 14.4682 10.7054 14.1238 11.0328C13.7794 11.3602 13.6072 11.7556 13.6072 12.2188C13.6072 12.6819 13.7794 13.0773 14.1238 13.4047C14.4682 13.7321 14.884 13.8958 15.3711 13.8958ZM1.51191 13.1771V11.2604H9.57546V13.1771H1.51191ZM3.77979 7.1875C2.72145 7.1875 1.8269 6.8401 1.09614 6.14531C0.365379 5.45052 0 4.6 0 3.59375C0 2.5875 0.365379 1.73698 1.09614 1.04219C1.8269 0.347396 2.72145 0 3.77979 0C4.83813 0 5.73268 0.347396 6.46344 1.04219C7.19419 1.73698 7.55957 2.5875 7.55957 3.59375C7.55957 4.6 7.19419 5.45052 6.46344 6.14531C5.73268 6.8401 4.83813 7.1875 3.77979 7.1875ZM3.77979 5.27083C4.26696 5.27083 4.68274 5.10712 5.02712 4.77969C5.3715 4.45226 5.54369 4.05694 5.54369 3.59375C5.54369 3.13056 5.3715 2.73524 5.02712 2.40781C4.68274 2.08038 4.26696 1.91667 3.77979 1.91667C3.29261 1.91667 2.87684 2.08038 2.53246 2.40781C2.18808 2.73524 2.01589 3.13056 2.01589 3.59375C2.01589 4.05694 2.18808 4.45226 2.53246 4.77969C2.87684 5.10712 3.29261 5.27083 3.77979 5.27083ZM9.57546 4.55208V2.63542H17.639V4.55208H9.57546Z" fill="#1F1F1F"/>
</svg>
