<svg width="62" height="30" viewBox="0 0 62 30" fill="none" xmlns="http://www.w3.org/2000/svg">
<rect x="0.5" y="0.5" width="61" height="29" rx="6.5" fill="#FAEBFF" stroke="#C153E3"/>
<path d="M8.75 21V19.5H19.25V21H8.75ZM8.75 18.375L7.79375 12.3563C7.76875 12.3563 7.74062 12.3594 7.70937 12.3656C7.67812 12.3719 7.65 12.375 7.625 12.375C7.3125 12.375 7.04688 12.2656 6.82812 12.0469C6.60937 11.8281 6.5 11.5625 6.5 11.25C6.5 10.9375 6.60937 10.6719 6.82812 10.4531C7.04688 10.2344 7.3125 10.125 7.625 10.125C7.9375 10.125 8.20312 10.2344 8.42187 10.4531C8.64062 10.6719 8.75 10.9375 8.75 11.25C8.75 11.3375 8.74062 11.4188 8.72187 11.4938C8.70312 11.5688 8.68125 11.6375 8.65625 11.7L11 12.75L13.3437 9.54375C13.2062 9.44375 13.0937 9.3125 13.0062 9.15C12.9187 8.9875 12.875 8.8125 12.875 8.625C12.875 8.3125 12.9844 8.04688 13.2031 7.82812C13.4219 7.60938 13.6875 7.5 14 7.5C14.3125 7.5 14.5781 7.60938 14.7969 7.82812C15.0156 8.04688 15.125 8.3125 15.125 8.625C15.125 8.8125 15.0812 8.9875 14.9937 9.15C14.9062 9.3125 14.7937 9.44375 14.6562 9.54375L17 12.75L19.3437 11.7C19.3187 11.6375 19.2969 11.5688 19.2781 11.4938C19.2594 11.4188 19.25 11.3375 19.25 11.25C19.25 10.9375 19.3594 10.6719 19.5781 10.4531C19.7969 10.2344 20.0625 10.125 20.375 10.125C20.6875 10.125 20.9531 10.2344 21.1719 10.4531C21.3906 10.6719 21.5 10.9375 21.5 11.25C21.5 11.5625 21.3906 11.8281 21.1719 12.0469C20.9531 12.2656 20.6875 12.375 20.375 12.375C20.35 12.375 20.3219 12.3719 20.2906 12.3656C20.2594 12.3594 20.2312 12.3563 20.2062 12.3563L19.25 18.375H8.75ZM10.025 16.875H17.975L18.4625 13.7438L16.4937 14.6063L14 11.175L11.5062 14.6063L9.5375 13.7438L10.025 16.875Z" fill="#C153E3"/>
<path d="M27.2138 21V9.48H31.8698C31.9818 9.48 32.1204 9.48533 32.2858 9.496C32.4511 9.50133 32.6084 9.51733 32.7578 9.544C33.3978 9.64533 33.9311 9.864 34.3577 10.2C34.7898 10.536 35.1124 10.96 35.3258 11.472C35.5391 11.984 35.6458 12.5493 35.6458 13.168C35.6458 13.792 35.5391 14.36 35.3258 14.872C35.1124 15.384 34.7898 15.808 34.3577 16.144C33.9311 16.48 33.3978 16.6987 32.7578 16.8C32.6084 16.8213 32.4484 16.8373 32.2778 16.848C32.1124 16.8587 31.9764 16.864 31.8698 16.864H28.8858V21H27.2138ZM28.8858 15.28H31.8058C31.9124 15.28 32.0298 15.2747 32.1578 15.264C32.2911 15.2533 32.4164 15.2347 32.5338 15.208C32.8751 15.128 33.1498 14.9813 33.3578 14.768C33.5658 14.5493 33.7151 14.2987 33.8058 14.016C33.8964 13.7333 33.9418 13.4507 33.9418 13.168C33.9418 12.8853 33.8964 12.6053 33.8058 12.328C33.7151 12.0453 33.5658 11.7973 33.3578 11.584C33.1498 11.3653 32.8751 11.216 32.5338 11.136C32.4164 11.104 32.2911 11.0827 32.1578 11.072C32.0298 11.0613 31.9124 11.056 31.8058 11.056H28.8858V15.28ZM37.245 21V12.36H38.733V14.456L38.525 14.184C38.6317 13.9067 38.7703 13.6533 38.941 13.424C39.1117 13.1893 39.309 12.9973 39.533 12.848C39.7517 12.688 39.9943 12.5653 40.261 12.48C40.533 12.3893 40.8103 12.336 41.093 12.32C41.3757 12.2987 41.6477 12.312 41.909 12.36V13.928C41.6263 13.8533 41.3117 13.832 40.965 13.864C40.6237 13.896 40.309 14.0053 40.021 14.192C39.749 14.368 39.533 14.5813 39.373 14.832C39.2183 15.0827 39.1063 15.3627 39.037 15.672C38.9677 15.976 38.933 16.2987 38.933 16.64V21H37.245ZM47.0283 21.24C46.1643 21.24 45.4149 21.0453 44.7803 20.656C44.1456 20.2667 43.6549 19.7307 43.3083 19.048C42.9669 18.36 42.7963 17.568 42.7963 16.672C42.7963 15.7707 42.9723 14.9787 43.3243 14.296C43.6763 13.608 44.1696 13.0747 44.8043 12.696C45.4389 12.312 46.1803 12.12 47.0283 12.12C47.8923 12.12 48.6416 12.3147 49.2763 12.704C49.9109 13.0933 50.4016 13.6293 50.7483 14.312C51.0949 14.9947 51.2683 15.7813 51.2683 16.672C51.2683 17.5733 51.0923 18.368 50.7403 19.056C50.3936 19.7387 49.9029 20.2747 49.2683 20.664C48.6336 21.048 47.8869 21.24 47.0283 21.24ZM47.0283 19.664C47.8549 19.664 48.4709 19.3867 48.8763 18.832C49.2869 18.272 49.4923 17.552 49.4923 16.672C49.4923 15.7707 49.2843 15.0507 48.8683 14.512C48.4576 13.968 47.8443 13.696 47.0283 13.696C46.4683 13.696 46.0069 13.824 45.6443 14.08C45.2816 14.3307 45.0123 14.68 44.8363 15.128C44.6603 15.5707 44.5723 16.0853 44.5723 16.672C44.5723 17.5787 44.7803 18.304 45.1963 18.848C45.6123 19.392 46.2229 19.664 47.0283 19.664Z" fill="#010002"/>
</svg>
