<svg xmlns="http://www.w3.org/2000/svg" width="100" height="103" viewBox="0 0 100 103" fill="none">
<path d="M36.3976 1.82146C36.2522 2.46743 35.2945 6.48608 34.2785 10.7631C33.2626 15.0402 32.0471 19.4874 31.5581 20.7049C30.2505 23.769 30.6711 24.7676 32.9451 24.2206C36.2993 23.4138 38.4748 19.9576 40.3879 12.4097C41.2294 8.90781 41.323 7.29668 40.7394 4.8708C39.7669 0.827679 37.1784 -0.932615 36.3976 1.82146Z" fill="black"/>
<path d="M7.7033 9.84492C6.4368 10.7085 7.66986 12.6477 11.43 15.5315C13.5408 17.1974 16.0723 19.6316 17.0527 21.0104C18.1453 22.6107 19.11 23.4344 19.7232 23.2869C20.7823 23.0322 21.721 19.8254 21.2691 17.9467C20.5207 14.8353 16.2128 10.6548 12.8213 9.79377C10.7975 9.22484 8.45473 9.29154 7.7033 9.84492Z" fill="black"/>
<path d="M5.5271 30.9723C-0.592716 33.1417 -1.14626 35.483 4.31669 36.2027C8.1897 36.6657 16.7593 34.6624 18.4979 32.8496C19.9005 31.35 19.2845 29.5225 17.1973 29.1529C14.7502 28.7537 9.60167 29.5854 5.5271 30.9723Z" fill="black"/>
<rect x="29.4915" y="32.9895" width="70" height="70" rx="8" fill="#5C50E1" fill-opacity="0.71"/>
<path d="M51.393 64.5179L55.673 66.3265C56.1851 65.3035 56.7155 64.3169 57.2643 63.367C57.813 62.417 58.4166 61.467 59.075 60.517L56.0022 59.9141L51.393 64.5179ZM59.1848 69.0669L65.4402 75.26C66.9766 74.6754 68.6227 73.7802 70.3786 72.5745C72.1345 71.3687 73.7807 69.9986 75.3171 68.464C77.8777 65.9063 79.8806 63.0655 81.3255 59.9415C82.7705 56.8176 83.4015 53.9402 83.2186 51.3095C80.5848 51.1268 77.6948 51.7571 74.5489 53.2003C71.4029 54.6436 68.5496 56.644 65.9889 59.2017C64.4525 60.7362 63.0807 62.3804 61.8735 64.1343C60.6663 65.8881 59.7701 67.5323 59.1848 69.0669ZM68.9519 65.5044C68.1106 64.6641 67.6899 63.6319 67.6899 62.4078C67.6899 61.1838 68.1106 60.1516 68.9519 59.3113C69.7933 58.4709 70.8359 58.0507 72.0796 58.0507C73.3234 58.0507 74.366 58.4709 75.2073 59.3113C76.0487 60.1516 76.4694 61.1838 76.4694 62.4078C76.4694 63.6319 76.0487 64.6641 75.2073 65.5044C74.366 66.3448 73.3234 66.765 72.0796 66.765C70.8359 66.765 69.7933 66.3448 68.9519 65.5044ZM69.9945 83.0973L74.6037 78.4936L74.0001 75.4244C73.049 76.0821 72.0979 76.6758 71.1468 77.2056C70.1957 77.7354 69.208 78.2561 68.1837 78.7676L69.9945 83.0973ZM87.1694 47.3086C87.8644 51.7297 87.4346 56.032 85.8799 60.2156C84.3252 64.3992 81.6456 68.3909 77.8412 72.1908L78.9386 77.6167C79.0849 78.3474 79.0483 79.0599 78.8289 79.7541C78.6094 80.4484 78.2436 81.0512 77.7314 81.5628L68.513 90.7703L63.9037 79.9734L54.5207 70.6014L43.7109 65.9977L52.8745 56.7902C53.3867 56.2786 53.9994 55.9133 54.7127 55.694C55.4261 55.4748 56.1485 55.4383 56.8802 55.5844L62.3125 56.6806C66.1169 52.8806 70.1042 50.1951 74.2745 48.624C78.4448 47.0529 82.743 46.6144 87.1694 47.3086ZM47.6068 77.5619C48.8872 76.2831 50.451 75.6345 52.2984 75.6162C54.1457 75.598 55.7096 76.2283 56.9899 77.5071C58.2702 78.7859 58.9013 80.3479 58.883 82.193C58.8647 84.0382 58.2154 85.6002 56.935 86.879C56.0205 87.7924 54.4932 88.578 52.3532 89.2357C50.2132 89.8934 47.2593 90.478 43.4915 90.9895C44.0036 87.2261 44.5889 84.2757 45.2474 82.1382C45.9058 80.0008 46.6923 78.4753 47.6068 77.5619ZM50.7345 80.6311C50.3687 80.9964 50.0029 81.6632 49.6371 82.6315C49.2713 83.5997 49.0152 84.5771 48.8689 85.5636C49.8566 85.4175 50.8351 85.1709 51.8045 84.8238C52.7739 84.4766 53.4415 84.1204 53.8073 83.755C54.2463 83.3166 54.4841 82.7868 54.5207 82.1656C54.5573 81.5445 54.3561 81.0147 53.9171 80.5762C53.4781 80.1378 52.9477 79.9277 52.3258 79.946C51.7039 79.9642 51.1735 80.1926 50.7345 80.6311Z" fill="#5C50E1"/>
<path d="M51.4977 64.2926L55.6414 66.0458C56.1372 65.0541 56.6508 64.0978 57.182 63.177C57.7133 62.2562 58.2977 61.3353 58.9352 60.4145L55.9602 59.8301L51.4977 64.2926ZM59.0414 68.702L65.0977 74.7051C66.5852 74.1385 68.1789 73.2708 69.8789 72.102C71.5789 70.9333 73.1727 69.6051 74.6602 68.1176C77.1393 65.6385 79.0784 62.8848 80.4773 59.8567C81.8763 56.8286 82.4872 54.0395 82.3102 51.4895C79.7602 51.3124 76.9622 51.9234 73.9164 53.3223C70.8706 54.7213 68.1081 56.6603 65.6289 59.1395C64.1414 60.627 62.8133 62.2208 61.6445 63.9208C60.4758 65.6208 59.6081 67.2145 59.0414 68.702ZM68.4977 65.2489C67.6831 64.4343 67.2758 63.4338 67.2758 62.2473C67.2758 61.0609 67.6831 60.0603 68.4977 59.2458C69.3122 58.4312 70.3216 58.0239 71.5258 58.0239C72.73 58.0239 73.7393 58.4312 74.5539 59.2458C75.3685 60.0603 75.7758 61.0609 75.7758 62.2473C75.7758 63.4338 75.3685 64.4343 74.5539 65.2489C73.7393 66.0635 72.73 66.4708 71.5258 66.4708C70.3216 66.4708 69.3122 66.0635 68.4977 65.2489ZM69.507 82.302L73.9695 77.8395L73.3852 74.8645C72.4643 75.502 71.5435 76.0775 70.6227 76.5911C69.7018 77.1046 68.7456 77.6093 67.7539 78.1051L69.507 82.302ZM86.1352 47.6114C86.8081 51.8968 86.3919 56.0671 84.8867 60.1223C83.3815 64.1775 80.7872 68.0468 77.1039 71.7301L78.1664 76.9895C78.3081 77.6978 78.2727 78.3885 78.0602 79.0614C77.8477 79.7343 77.4935 80.3187 76.9977 80.8145L68.0727 89.7395L63.6102 79.2739L54.5258 70.1895L44.0602 65.727L52.932 56.802C53.4279 56.3062 54.0211 55.952 54.7117 55.7395C55.4023 55.527 56.1018 55.4916 56.8102 55.6333L62.0695 56.6958C65.7529 53.0124 69.6133 50.4093 73.6508 48.8864C77.6883 47.3635 81.8497 46.9385 86.1352 47.6114ZM47.832 76.9364C49.0716 75.6968 50.5857 75.0682 52.3742 75.0505C54.1628 75.0327 55.6768 75.6437 56.9164 76.8833C58.156 78.1228 58.7669 79.6369 58.7492 81.4255C58.7315 83.214 58.1029 84.7281 56.8633 85.9676C55.9779 86.8531 54.4992 87.6145 52.4273 88.252C50.3555 88.8895 47.4956 89.4562 43.8477 89.952C44.3435 86.3041 44.9102 83.4442 45.5477 81.3723C46.1852 79.3005 46.9466 77.8218 47.832 76.9364ZM50.8602 79.9114C50.506 80.2656 50.1518 80.9119 49.7977 81.8505C49.4435 82.789 49.1956 83.7364 49.0539 84.6926C50.0102 84.551 50.9576 84.3119 51.8961 83.9755C52.8346 83.639 53.481 83.2937 53.8352 82.9395C54.2602 82.5145 54.4904 82.001 54.5258 81.3989C54.5612 80.7968 54.3664 80.2833 53.9414 79.8583C53.5164 79.4333 53.0029 79.2296 52.4008 79.2473C51.7987 79.265 51.2852 79.4864 50.8602 79.9114Z" fill="white"/>
</svg>