<svg width="17" height="10" viewBox="0 0 17 10" fill="none" xmlns="http://www.w3.org/2000/svg">
<path d="M9.67109 7.97003C9.67128 7.96984 9.67128 7.96954 9.67109 7.96935C9.67089 7.96916 9.67089 7.96886 9.67109 7.96867L16.0177 1.76839C16.4127 1.38245 16.4127 0.756711 16.0177 0.370766L15.9352 0.290238C15.5402 -0.0957067 14.8997 -0.0957067 14.5046 0.290238L8.87301 5.79204C8.47796 6.17798 7.83745 6.17798 7.4424 5.79204L1.81009 0.289556C1.41504 -0.0963887 0.774535 -0.0963888 0.379484 0.289556L0.296358 0.370766C-0.0986932 0.75671 -0.0986933 1.38245 0.296358 1.76839L7.4424 8.74971C7.83745 9.13566 8.47796 9.13566 8.87301 8.74971L9.67109 7.97003Z" fill="#5C50E1"/>
</svg>
