<svg width="47" height="48" viewBox="0 0 47 48" fill="none" xmlns="http://www.w3.org/2000/svg">
<path d="M11.8347 23.5909C11.8377 20.5161 13.0345 17.5681 15.1625 15.3938C17.2905 13.2196 20.1758 11.9967 23.1852 11.9936C25.1764 11.9978 27.1319 12.535 28.8567 13.5517C30.5815 14.5684 32.0154 16.0291 33.0158 17.7883L30.1427 19.4862L39.7778 13.8031C39.5299 13.3437 39.1718 12.9562 38.737 12.6771L24.6591 4.37376C23.8464 3.89397 22.5201 3.89397 21.7093 4.37376L7.63142 12.6771C6.82259 13.1549 6.15942 14.3299 6.15942 15.2876V31.8942C6.15942 32.374 6.32426 32.9067 6.59259 33.3786L13.3565 29.3876C12.3569 27.6266 11.8318 25.6265 11.8347 23.5909Z" fill="black"/>
<path d="M28.0994 20.6907C27.5997 19.8108 26.883 19.0801 26.0207 18.5716C25.1584 18.063 24.1807 17.7943 23.1851 17.7924C22.1897 17.7943 21.2123 18.0635 20.3508 18.5728C19.4893 19.0822 18.7739 19.8139 18.2762 20.6946C17.7786 21.5753 17.5161 22.5742 17.5151 23.5912C17.5142 24.6082 17.7747 25.6076 18.2707 26.4893L23.1851 23.591L28.0994 20.6907Z" fill="black"/>
<path d="M39.7777 13.8032L30.1062 19.5078L28.1013 20.6926L28.0994 20.6907L23.1851 23.591L18.2727 26.4893C18.7709 27.3702 19.487 28.1019 20.3491 28.6109C21.2113 29.1199 22.1893 29.3885 23.1851 29.3896C24.1813 29.388 25.1596 29.1192 26.0223 28.6103C26.885 28.1013 27.6019 27.37 28.1013 26.4893L33.0137 29.3935C32.0137 31.153 30.5798 32.6139 28.8549 33.6306C27.1301 34.6474 25.1745 35.1844 23.1832 35.1882C21.1909 35.187 19.234 34.6504 17.5088 33.6323C15.7837 32.6142 14.351 31.1503 13.3545 29.3876L6.59058 33.3787C6.85891 33.8526 7.22691 34.2658 7.63133 34.5048L21.7092 42.8081C22.52 43.2879 23.8463 43.2879 24.659 42.8081L38.7369 34.5048C39.1413 34.2658 39.5093 33.8526 39.7777 33.3787C40.046 32.9068 40.2108 32.3741 40.2108 31.8943V15.2876C40.2108 14.8078 40.046 14.2752 39.7777 13.8032ZM34.5356 24.2353H33.2744V25.5238H32.0152V24.2353H30.754V22.9467H32.0152V21.6581H33.2744V22.9467H34.5356V24.2353ZM39.2659 24.2353H38.0047V25.5238H36.7436V24.2353H35.4843V22.9467H36.7436V21.6581H38.0047V22.9467H39.2659V24.2353Z" fill="black"/>
</svg>
