<svg width="36" height="39" viewBox="0 0 36 39" fill="none" xmlns="http://www.w3.org/2000/svg">
<path d="M13.6364 28.0345C14.3608 27.2788 14.7231 26.1794 14.7231 24.7361V13.1677H11.844V24.7533C11.844 25.5143 11.7077 26.0739 11.4353 26.432C11.1627 26.7899 10.7107 26.9689 10.0791 26.9689C9.67047 26.9689 9.21868 26.9125 8.72314 26.7998V28.9816C9.20607 29.1055 9.77268 29.1677 10.4228 29.1677C11.8408 29.1677 12.912 28.7898 13.6364 28.0345Z" fill="black"/>
<path d="M35.3722 6.31514L28.2324 0.263156C28.0336 0.0946259 27.7641 0 27.4829 0H1.05986C0.474537 0 0 0.40222 0 0.898347V37.2141C0 37.7102 0.474537 38.1124 1.05986 38.1124H34.6228C35.2083 38.1124 35.6827 37.7102 35.6827 37.2141V6.95021C35.6827 6.71197 35.571 6.48355 35.3722 6.31514ZM28.5427 3.06708L32.064 6.05187H28.5427V3.06708ZM2.11973 1.79669H26.4231V3.02599H2.11973V1.79669ZM33.563 36.3157H2.11973V4.82269H26.4231V6.95033C26.4231 7.44658 26.8975 7.84868 27.483 7.84868H33.563V36.3157Z" fill="black"/>
<path d="M23.3515 18.6945C22.3756 18.2679 21.757 17.9723 21.4958 17.8078C21.2345 17.6435 21.044 17.4736 20.9246 17.2977C20.8049 17.1218 20.7452 16.9157 20.7452 16.6793C20.7452 16.2987 20.8929 15.9902 21.189 15.7536C21.4848 15.5173 21.9098 15.399 22.464 15.399C22.9298 15.399 23.4036 15.454 23.8852 15.5633C24.3668 15.6729 24.9758 15.8661 25.7127 16.1428L26.6569 14.0585C25.9455 13.776 25.2639 13.5568 24.6125 13.4012C23.9607 13.2454 23.2762 13.1677 22.5583 13.1677C21.0975 13.1677 19.9532 13.4878 19.1254 14.1277C18.2976 14.7678 17.8836 15.6471 17.8836 16.7658C17.8836 17.3596 18.0094 17.8787 18.2613 18.3227C18.5131 18.7668 18.8499 19.156 19.2719 19.4905C19.6935 19.8249 20.3262 20.1737 21.1701 20.537C22.0704 20.9291 22.6669 21.2145 22.9598 21.3933C23.2525 21.5721 23.4743 21.7579 23.6255 21.9511C23.7768 22.1442 23.8523 22.365 23.8523 22.6128C23.8523 23.057 23.6807 23.3912 23.3375 23.6162C22.9942 23.841 22.5018 23.9536 21.8597 23.9536C21.3244 23.9536 20.7342 23.8757 20.0888 23.72C19.4433 23.5643 18.6549 23.2963 17.7231 22.9156V25.4066C18.8565 25.9142 20.1596 26.1677 21.6329 26.1677C23.232 26.1677 24.4801 25.8391 25.3774 25.1816C26.2747 24.5243 26.7231 23.6248 26.7231 22.483C26.7231 21.6585 26.484 20.9622 26.0056 20.3941C25.5269 19.8262 24.6423 19.2596 23.3515 18.6945Z" fill="black"/>
</svg>
