<svg width="39" height="44" viewBox="0 0 39 44" fill="none" xmlns="http://www.w3.org/2000/svg">
<g clip-path="url(#clip0_88_56)">
<path d="M18.3943 23.1803C18.3943 23.1803 16.276 18.5613 16.3542 15.1861C16.4113 12.7742 21.2173 10.39 23.1041 6.92807C24.9876 3.46425 22.8692 0.0909424 22.8692 0.0909424C22.8692 0.0909424 23.3405 2.57847 22.0848 5.15095C20.8291 7.72711 16.1943 9.23843 14.3924 13.6785C12.5904 18.1185 18.3943 23.1803 18.3943 23.1803Z" fill="#010002"/>
<path d="M26.3233 9.14795C26.3233 9.14795 19.1038 12.2574 19.1038 15.8079C19.1038 19.3621 21.064 20.5154 21.3804 21.6688C21.6935 22.8259 20.8308 24.7783 20.8308 24.7783C20.8308 24.7783 23.6554 22.5583 23.1824 19.9822C22.7111 17.4061 20.5144 16.6051 21.7718 14.0327C22.6116 12.3073 26.3233 9.14795 26.3233 9.14795Z" fill="#010002"/>
<path d="M17.6117 27.873C24.2833 27.6036 26.7164 25.2212 26.7164 25.2212C22.4014 26.5517 10.9418 26.465 10.8619 25.4888C10.7852 24.5126 14.3926 23.7117 14.3926 23.7117C14.3926 23.7117 8.7435 23.7117 8.27219 25.3097C7.80081 26.9079 10.945 28.1369 17.6117 27.873Z" fill="#010002"/>
<path d="M27.2642 31.6154C27.2642 31.6154 33.7938 30.0395 33.148 26.0258C32.3653 21.1393 27.812 23.8925 27.812 23.8925C27.812 23.8925 31.0328 23.8925 31.3443 26.1106C31.6591 28.3307 27.2642 31.6154 27.2642 31.6154Z" fill="#010002"/>
<path d="M24.0467 29.4859C24.0467 29.4859 22.4013 29.9749 19.9632 30.285C16.6951 30.7001 12.7437 30.3717 12.429 29.7498C12.1192 29.1279 12.9785 28.7736 12.9785 28.7736C9.05319 29.8402 11.201 31.7022 15.8014 32.0602C19.7447 32.3647 25.6139 30.7279 25.6139 30.7279L24.0467 29.4859Z" fill="#010002"/>
<path d="M13.9244 33.3649C13.9244 33.3649 12.1436 33.4221 12.0392 34.4887C11.9364 35.548 13.1351 36.5002 17.5317 36.7955C21.9266 37.0907 25.0154 35.4354 25.0154 35.4354L23.0274 34.0699C23.0274 34.0699 21.7701 34.3688 19.8343 34.6641C17.8969 34.9612 13.9242 34.426 13.7677 34.0145C13.608 33.5992 13.9244 33.3649 13.9244 33.3649Z" fill="#010002"/>
<path d="M31.0297 38.161C31.7098 37.3306 30.8193 36.6792 30.8193 36.6792C30.8193 36.6792 31.1325 37.0944 30.7183 37.5669C30.2991 38.0393 26.4782 39.2222 20.3562 39.5783C14.2358 39.9344 7.59031 38.9268 7.37991 38.0393C7.17609 37.1516 10.7834 36.443 10.7834 36.443C10.3659 36.502 5.34304 36.6202 5.18322 38.161C5.02665 39.6982 7.37991 40.942 16.801 40.942C26.2173 40.9402 30.3529 38.9859 31.0297 38.161Z" fill="#010002"/>
<path d="M27.3686 41.6524C23.2345 42.5972 10.6807 42.0012 10.6807 42.0012C10.6807 42.0012 18.8396 44.1935 28.153 42.3593C32.605 41.4808 32.8643 39.0431 32.8643 39.0431C32.8643 39.0431 31.5027 40.7021 27.3686 41.6524Z" fill="#010002"/>
</g>
<defs>
<clipPath id="clip0_88_56">
<rect width="38" height="43" fill="white" transform="translate(0.18457 0.0909424)"/>
</clipPath>
</defs>
</svg>
