<svg width="38" height="41" viewBox="0 0 38 41" fill="none" xmlns="http://www.w3.org/2000/svg">
<g clip-path="url(#clip0_88_68)">
<path d="M25.1714 19.6723C28.0566 18.2956 28.4866 7.81722 26.7844 4.73092C24.5609 0.701838 13.9915 1.51094 10.654 4.39086C10.2708 5.82144 10.3109 8.4176 10.3288 10.4814H20.8046V11.4476H10.331C10.331 11.4617 5.66787 11.4781 5.66787 11.4781C-2.37282 11.4781 -2.20572 29.8599 8.4038 29.8599C8.4038 29.8599 8.79369 25.7886 9.47545 23.7483C11.5809 17.4514 20.4258 21.9378 25.1714 19.6723ZM14.2032 8.98983C12.9956 8.98983 12.0175 7.96028 12.0175 6.68683C12.0175 5.41572 12.9956 4.38383 14.2032 4.38383C15.4129 4.38383 16.391 5.41572 16.391 6.68683C16.3932 7.95794 15.4129 8.98983 14.2032 8.98983Z" fill="#030104"/>
<path d="M29.2307 11.8651C29.2307 11.8651 28.9523 15.9388 28.2705 17.9767C26.1651 24.2713 17.3223 19.7873 12.5746 22.0527C9.69159 23.4294 9.25713 33.9078 10.9615 36.9941C13.1828 41.0255 23.7522 40.2164 27.0919 37.3342C27.4751 35.9059 27.435 33.3098 27.4172 31.246H16.9391V30.2797H27.4127C27.4127 30.2657 32.5749 30.2493 32.5749 30.2493C39.9851 30.2493 40.649 11.8651 29.2307 11.8651ZM23.1663 32.3365C24.3738 32.3365 25.3541 33.366 25.3541 34.6395C25.3541 35.9106 24.3738 36.9402 23.1663 36.9402C21.9587 36.9402 20.9806 35.9106 20.9806 34.6395C20.9806 33.366 21.9587 32.3365 23.1663 32.3365Z" fill="#030104"/>
</g>
<defs>
<clipPath id="clip0_88_68">
<rect width="38" height="40" fill="white" transform="translate(0 0.863647)"/>
</clipPath>
</defs>
</svg>
